{"title":"Pirates of the Caribbean-1 (2003) 720p x264 Hindi AC3 -En AAC 5.","uid":15571380,"size":2185617000,"categoryP":"video","categoryS":"hd___movies","magnet":"?xt=urn:btih:ff8b4bb3f79057e5bd7ab5ccf85a075282257ded&amp;dn=Pirates+of+the+Caribbean-1+%282003%29+720p+x264+Hindi+AC3+-En+AAC+5.&amp;tr=udp%3A%2F%2Ftracker.leechers-paradise.org%3A6969&amp;tr=udp%3A%2F%2Fzer0day.ch%3A1337&amp;tr=udp%3A%2F%2Fopen.demonii.com%3A1337&amp;tr=udp%3A%2F%2Ftracker.coppersurfer.tk%3A6969&amp;tr=udp%3A%2F%2Fexodus.desync.com%3A6969","seeders":5,"leechers":23,"uploader":"SaM","files":3,"time":1471264548,"description":"- HollyWooD Movie-\r\n\r\nPirates Of The Caribbean\r\nThe Curse of the Black Pearl\r\n** 2003 **\r\n720p / Blu-ray Rip / x264\r\nHindi AC3 5.1\r\nEnglish AAC 5.1\r\n\r\nEnglish H.I &amp; French subs\r\n \nhttp://extraimago.com/image/w7ic \nhttp://extraimago.com/image/w7i7 \nhttp://extraimago.com/image/w7is \nhttp://extraimago.com/image/w7in \nhttp://extraimago.com/image/w7ij \nhttp://extraimago.com/image/w7iT \nhttp://extraimago.com/image/w7iN \nhttp://extraimago.com/image/w7i2 \nhttp://extraimago.com/image/w7iw \nhttp://extraimago.com/image/w7ia \nhttp://extraimago.com/image/w7i8 \nhttp://extraimago.com/image/w7mf \nhttp://extraimago.com/image/w7mW \nhttp://extraimago.com/image/w7mA\r\n\r\n\r\nSource : Fr BD50 @ DDR + Raw PCM 5.1 Hindi Audio\r\n\r\nFormat : Matroska\r\nFile size : 2.02 GiB\r\nDuration : 2h 23mn\r\nOverall bit rate : 2 016 Kbps\r\n\r\n\r\nVideo\r\nFormat : AVC\r\nFormat/Info : Advanced Video Codec\r\nFormat profile :   \r\nFormat settings, CABAC : Yes\r\nFormat settings, ReFrames : 12 frames\r\nCodec ID : V_MPEG4/ISO/AVC\r\nDuration : 2h 23mn\r\nBit rate : 1 388 Kbps\r\nWidth : 1 280 pixels\r\nHeight : 534 pixels\r\nDisplay aspect ratio : 2.40:1\r\nFrame rate mode : Constant\r\nFrame rate : 23.976 (24000/1001) fps\r\ncolor space : YUV\r\nChroma subsampling : 4:2:0\r\nBit depth : 8 bits\r\nScan type : Progressive\r\nBits/(Pixel*Frame) : 0.085\r\nStream size : 1.39 GiB (69%)\r\nWriting library : x264 core 148 r2692 64f4e24\r\n\r\nAudio\r\nFormat : AC-3\r\nFormat/Info : Audio Coding 3\r\nMode extension : CM (complete main)\r\nFormat settings, Endianness : Big\r\nCodec ID : A_AC3\r\nDuration : 2h 23mn\r\nBit rate mode : Constant\r\nBit rate : 448 Kbps\r\nChannel(s) : 6 channels\r\nChannel positions : Front: L C R, Side: L R, LFE\r\nSampling rate : 48.0 KHz\r\nFrame rate : 31.250 fps (1536 spf)\r\nCompression mode : Lossy\r\nStream size : 440 MiB (21%)\r\nLanguage : Hindi\r\nDefault : Yes\r\nForced : No\r\n\r\nAudio #2\r\nID : 3\r\nFormat : AAC\r\nFormat/Info : Advanced Audio Codec\r\nFormat profile : LC\r\nCodec ID : A_AAC\r\nDuration : 2h 23mn\r\nBit rate : 192 Kbps\r\nChannel(s) : 6 channels\r\nChannel positions : Front: L C R, Side: L R, LFE\r\nSampling rate : 48.0 KHz\r\nFrame rate : 46.875 fps (1024 spf)\r\nCompression mode : Lossy\r\nDelay relative to video : 9ms\r\nStream size : 196 MiB (10%)\r\nLanguage : English\r\nDefault : No\r\nForced : No\r\n\r\nText #1\r\nID : 4\r\nFormat : VobSub\r\nMuxing mode : zlib\r\nCodec ID : S_VOBSUB\r\nCodec ID/Info : Picture based subtitle format used on DVDs\r\nDuration : 2h 22mn\r\nBit rate : 2 564 bps\r\nCount of elements : 1918\r\nStream size : 2.62 MiB (0%)\r\nLanguage : English\r\nDefault : Yes\r\nForced : No\r\n\r\nText #2\r\nID : 5\r\nFormat : VobSub\r\nMuxing mode : zlib\r\nCodec ID : S_VOBSUB\r\nCodec ID/Info : Picture based subtitle format used on DVDs\r\nDuration : 2h 23mn\r\nBit rate : 2 307 bps\r\nCount of elements : 1427\r\nStream size : 2.36 MiB (0%)\r\nLanguage : French\r\nDefault : No\r\nForced : No\r\n\r\n\r\nSample : Included","torrent":{"xt":"urn:btih:ff8b4bb3f79057e5bd7ab5ccf85a075282257ded","amp;dn":"Pirates+of+the+Caribbean-1+%282003%29+720p+x264+Hindi+AC3+-En+AAC+5.","amp;tr":["udp%3A%2F%2Ftracker.leechers-paradise.org%3A6969","udp%3A%2F%2Fzer0day.ch%3A1337","udp%3A%2F%2Fopen.demonii.com%3A1337","udp%3A%2F%2Ftracker.coppersurfer.tk%3A6969","udp%3A%2F%2Fexodus.desync.com%3A6969"],"infoHash":"ff8b4bb3f79057e5bd7ab5ccf85a075282257ded","infoHashBuffer":{"type":"Buffer","data":[255,139,75,179,247,144,87,229,189,122,181,204,248,90,7,82,130,37,125,237]},"announce":[],"urlList":[]}}